<?xml version="1.0" encoding="utf-8"?>
<!-- Generator: Adobe Illustrator 25.2.1, SVG Export Plug-In . SVG Version: 6.00 Build 0)  -->
<svg version="1.1" id="Layer_1" xmlns="http://www.w3.org/2000/svg" xmlns:xlink="http://www.w3.org/1999/xlink" x="0px" y="0px"
	 viewBox="0 0 18 18" style="enable-background:new 0 0 18 18;" xml:space="preserve">
<style type="text/css">
	.st0{fill:#FFFFFF;}
</style>
<g>
	<path class="st0" d="M1.6,18c-0.2-0.1-0.5-0.1-0.7-0.3c-0.4-0.2-0.5-0.5-0.4-0.9c0-0.2,0.1-0.4,0.2-0.7c0.6-1.4,1.3-2.8,2.2-4
		c0.2-0.2,0.3-0.4,0.5-0.7c0.7-0.8,1.8-0.6,2.5-0.1c0.2,0.2,0.3,0.3,0.5,0.5c0.5,0.5,1.1,0.8,1.8,0.9c0.9,0.1,1.8,0.1,2.7-0.2
		c0.4-0.1,0.8-0.4,1.1-0.7c0.2-0.2,0.4-0.4,0.6-0.6c0.5-0.4,1.1-0.6,1.7-0.3c0.4,0.2,0.6,0.5,0.9,0.8c0.4,0.6,0.8,1.1,1.1,1.7
		c0.5,0.9,0.9,1.8,1.3,2.8c0.1,0.2,0.1,0.4,0.1,0.5c0.1,0.5-0.1,0.8-0.5,1c-0.2,0.1-0.3,0.1-0.5,0.2C11.5,18,6.6,18,1.6,18z"/>
	<path class="st0" d="M9.3,0c0.3,0.1,0.5,0.1,0.8,0.2c1.2,0.3,2.1,1.1,2.7,2.2c1.1,2.1,1,4.3-0.3,6.3c-0.7,1.1-1.7,1.8-3,2
		c-1,0.2-2-0.1-2.8-0.7c-1.2-0.8-1.9-2-2.2-3.5C4.3,5,4.5,3.6,5.2,2.3C5.9,1,7,0.2,8.6,0c0,0,0.1,0,0.1,0C8.9,0,9.1,0,9.3,0z"/>
</g>
</svg>
