<?xml version="1.0" encoding="utf-8"?>
<!-- Generator: Adobe Illustrator 25.2.1, SVG Export Plug-In . SVG Version: 6.00 Build 0)  -->
<svg version="1.1" id="Layer_1" xmlns="http://www.w3.org/2000/svg" xmlns:xlink="http://www.w3.org/1999/xlink" x="0px" y="0px"
	 viewBox="0 0 18 18" style="enable-background:new 0 0 18 18;" xml:space="preserve">
<style type="text/css">
	.st0{fill:#FFFFFF;}
</style>
<g>
	<path class="st0" d="M11.1,3.1c-3.6,3.6-9.7,9.7-9.8,9.8c-0.1,0.1-0.1,0.1-0.2,0.3c0,0.1-0.9,3.7-1.1,4.2s0.1,0.6,0.1,0.6
		s0.1,0.2,0.6,0.1c0.5-0.1,4.1-1,4.2-1.1c0.1,0,0.2-0.1,0.3-0.2c0.1-0.1,6.2-6.2,9.8-9.8L11.1,3.1z"/>
	<path class="st0" d="M17.5,1.7c-0.6-0.6-0.6-0.6-0.6-0.6s0,0-0.6-0.6c-0.6-0.6-1.9-0.7-2.6,0c-0.1,0.1-0.7,0.7-1.4,1.4l3.9,3.9
		c0.8-0.8,1.3-1.3,1.4-1.4C18.2,3.6,18.1,2.3,17.5,1.7z"/>
</g>
</svg>
