<?xml version="1.0" encoding="utf-8"?>
<!-- Generator: Adobe Illustrator 25.2.1, SVG Export Plug-In . SVG Version: 6.00 Build 0)  -->
<svg version="1.1" id="Layer_1" xmlns="http://www.w3.org/2000/svg" xmlns:xlink="http://www.w3.org/1999/xlink" x="0px" y="0px"
	 viewBox="0 0 18 18" style="enable-background:new 0 0 18 18;" xml:space="preserve">
<style type="text/css">
	.st0{fill:#FFFFFF;}
</style>
<g>
	<path class="st0" d="M18,15.2C18,15.2,17.9,15.2,18,15.2c-0.2,0.3-0.4,0.4-0.7,0.3c-2.3-0.4-4.6-0.4-6.9-0.1
		c-0.4,0-0.8,0.2-1.2,0.2c-0.1,0-0.3,0-0.4,0c-0.7-0.2-1.5-0.3-2.3-0.4c-1.2-0.1-2.5-0.1-3.7,0c-0.7,0.1-1.4,0.1-2.1,0.2
		C0.3,15.6,0,15.3,0,14.9c0-0.4,0.1-0.6,0.5-0.6c0.9-0.1,1.8-0.2,2.7-0.3c1.2-0.1,2.4,0,3.7,0.1c0.7,0.1,1.3,0.2,2,0.3
		c0.1,0,0.1,0,0.2,0c1-0.3,2.1-0.3,3.2-0.4c1.2-0.1,2.5,0,3.7,0.1c0.5,0,1,0.1,1.4,0.2c0.2,0,0.4,0.2,0.6,0.3
		C18,14.7,18,14.9,18,15.2z"/>
	<path class="st0" d="M8.7,13.6c-0.6-0.1-1.2-0.2-1.8-0.2c-2-0.2-4-0.2-6,0.2c-0.3,0.1-0.6-0.1-0.6-0.4c0-0.1,0-0.1,0-0.2
		c0-3.1,0-6.2,0-9.3c0-0.4,0.1-0.6,0.5-0.7c2.6-0.8,5.1-0.8,7.7,0c0.1,0,0.2,0.1,0.2,0.3c0,3.4,0,6.8,0,10.2
		C8.7,13.4,8.7,13.5,8.7,13.6z"/>
	<path class="st0" d="M9.3,13.6c0-0.1,0-0.2,0-0.3c0-3.4,0-6.7,0-10.1c0-0.2,0.1-0.3,0.2-0.3c0.8-0.2,1.5-0.3,2.3-0.5
		c0.1,0,0.2,0,0.3,0c0,0.1,0,0.2,0,0.2c0,0.8,0,1.6,0,2.4c0,0.2,0,0.3,0.2,0.4c0.2,0.1,0.3,0,0.4-0.1c0.2-0.1,0.4-0.3,0.6-0.4
		c0.2-0.1,0.3-0.1,0.5,0c0.2,0.1,0.4,0.3,0.6,0.4c0.1,0.1,0.2,0.1,0.4,0.1c0.1-0.1,0.2-0.2,0.2-0.4c0-0.8,0-1.6,0-2.4
		c0-0.1,0-0.1,0-0.2c0.4,0.1,0.7,0.1,1,0.2c0.5,0.1,0.9,0.2,1.4,0.4c0.3,0.1,0.4,0.3,0.4,0.6c0,3.1,0,6.3,0,9.4
		c0,0.4-0.3,0.7-0.7,0.6c-1.5-0.3-3-0.3-4.4-0.3c-1,0-1.9,0.1-2.9,0.3C9.6,13.5,9.5,13.6,9.3,13.6z"/>
</g>
</svg>
