<?xml version="1.0" encoding="utf-8"?>
<!-- Generator: Adobe Illustrator 25.2.3, SVG Export Plug-In . SVG Version: 6.00 Build 0)  -->
<svg version="1.1" id="Layer_1" xmlns="http://www.w3.org/2000/svg" xmlns:xlink="http://www.w3.org/1999/xlink" x="0px" y="0px"
	 viewBox="0 0 64 64" style="enable-background:new 0 0 64 64;" xml:space="preserve">
<style type="text/css">
	.st0{fill:url(#SVGID_1_);}
	.st1{fill:#2E2A25;}
	.st2{fill:#FFFFFF;}
</style>
<linearGradient id="SVGID_1_" gradientUnits="userSpaceOnUse" x1="-2.156412e-09" y1="2.153683e-09" x2="64" y2="64">
	<stop  offset="8.073434e-08" style="stop-color:#FF7400"/>
	<stop  offset="1" style="stop-color:#982529"/>
</linearGradient>
<rect class="st0" width="64" height="64"/>
<rect x="5" y="5" class="st1" width="54" height="54"/>
<g>
	<path class="st2" d="M28.6,49.3l0.6,1.9h-9.6l0.6-1.9l-5.4-34.7l-0.8-1.9h11.5l-0.5,1.9l0.9,16.7l-0.2,4.8l2.8-21.5l-0.5-1.9h9.3
		l-0.5,1.9l1.9,16.8l0.3,4.7l1.5-21.5l-0.5-1.9h10.5l-0.8,1.9l-5.2,34.7l0.6,1.9H34.3l0.6-1.9l-3.5-18.2L28.6,49.3z"/>
</g>
</svg>
