<?xml version="1.0" encoding="utf-8"?>
<!-- Generator: Adobe Illustrator 25.2.3, SVG Export Plug-In . SVG Version: 6.00 Build 0)  -->
<svg version="1.1" id="Layer_1" xmlns="http://www.w3.org/2000/svg" xmlns:xlink="http://www.w3.org/1999/xlink" x="0px" y="0px"
	 viewBox="0 0 18 18" style="enable-background:new 0 0 18 18;" xml:space="preserve">
<style type="text/css">
	.st0{fill:#FFFFFF;}
</style>
<g>
	<path class="st0" d="M13.7,11.3c-0.3,0-0.5-0.1-0.7-0.3s-0.3-0.5-0.3-0.7c0-0.3,0.1-0.5,0.3-0.7l1.2-1.2c0.6-0.6,0.9-1.4,0.9-2.3
		s-0.3-1.7-0.9-2.3c-0.6-0.6-1.4-0.9-2.3-0.9s-1.7,0.3-2.3,0.9L8.5,5C8.3,5.2,8,5.3,7.7,5.3S7.2,5.2,7,5C6.6,4.6,6.6,3.9,7,3.5
		l1.2-1.2c1-1,2.3-1.5,3.7-1.5s2.7,0.5,3.7,1.5c1,1,1.6,2.3,1.6,3.7s-0.6,2.7-1.6,3.7L14.5,11C14.3,11.2,14,11.3,13.7,11.3z"/>
	<path class="st0" d="M6,17.3c-1.4,0-2.7-0.6-3.7-1.6c-2.1-2.1-2.1-5.4,0-7.5L3.5,7C3.7,6.8,4,6.7,4.2,6.7S4.8,6.8,5,7
		c0.4,0.4,0.4,1.1,0,1.5L3.7,9.7c-1.2,1.2-1.2,3.3,0,4.5c0.6,0.6,1.4,0.9,2.3,0.9s1.7-0.3,2.3-0.9L9.5,13c0.2-0.2,0.5-0.3,0.7-0.3
		s0.5,0.1,0.7,0.3c0.4,0.4,0.4,1.1,0,1.5l-1.2,1.2C8.7,16.7,7.4,17.3,6,17.3z"/>
	<path class="st0" d="M6.7,12.3c-0.3,0-0.5-0.1-0.7-0.3s-0.3-0.5-0.3-0.7s0.1-0.5,0.3-0.7L10.5,6c0.2-0.2,0.5-0.3,0.7-0.3
		S11.8,5.8,12,6c0.2,0.2,0.3,0.5,0.3,0.7S12.2,7.3,12,7.5L7.5,12C7.3,12.2,7,12.3,6.7,12.3z"/>
</g>
</svg>
