<?xml version="1.0" encoding="utf-8"?>
<!-- Generator: Adobe Illustrator 25.2.3, SVG Export Plug-In . SVG Version: 6.00 Build 0)  -->
<svg version="1.1" id="Layer_1" xmlns="http://www.w3.org/2000/svg" xmlns:xlink="http://www.w3.org/1999/xlink" x="0px" y="0px"
	 viewBox="0 0 18 18" style="enable-background:new 0 0 18 18;" xml:space="preserve">
<style type="text/css">
	.st0{fill:#FFFFFF;}
</style>
<path class="st0" d="M3.8,17.3c-1.7,0-3-1.4-3-3V3.8c0-1.7,1.4-3,3-3h8.5c0.6,0,1,0.5,1,1s-0.5,1-1,1H3.8c-0.5,0-1,0.4-1,1v10.5
	c0,0.5,0.4,1,1,1h8.5c0.6,0,1,0.5,1,1s-0.5,1-1,1H3.8z M12.8,13.3c-0.3,0-0.6-0.1-0.8-0.3c-0.4-0.4-0.4-1.1,0.1-1.5l1.5-1.4H7.8
	c-0.6,0-1-0.5-1-1s0.5-1,1-1h5.8L12,6.5C11.6,6.1,11.6,5.5,12,5c0.2-0.2,0.5-0.3,0.8-0.3c0.3,0,0.5,0.1,0.7,0.3L17,8.2
	c0.2,0.2,0.3,0.5,0.3,0.8S17.2,9.6,17,9.8L13.5,13C13.3,13.2,13,13.3,12.8,13.3z"/>
</svg>
