<?xml version="1.0" encoding="utf-8"?>
<!-- Generator: Adobe Illustrator 25.2.1, SVG Export Plug-In . SVG Version: 6.00 Build 0)  -->
<svg version="1.1" id="Layer_1" xmlns="http://www.w3.org/2000/svg" xmlns:xlink="http://www.w3.org/1999/xlink" x="0px" y="0px"
	 viewBox="0 0 18 18" style="enable-background:new 0 0 18 18;" xml:space="preserve">
<style type="text/css">
	.st0{fill:#FFFFFF;}
</style>
<g>
	<path class="st0" d="M17.6,8.7V7.8c0-5.1-0.8-5.2-2.3-5.3c-0.5-0.1-1-0.1-1.5-0.1V8v0.7H17.6z"/>
	<path class="st0" d="M4.2,8.7V8V2.3c-0.5,0-1,0.1-1.5,0.1C1.2,2.6,0.4,2.7,0.4,7.8v0.9H4.2z"/>
	<path class="st0" d="M11.5,9.4V8.7h1V8V2.2C11.1,2.2,9.7,2.2,9,2.2s-2.1,0-3.4,0.1V8v0.7h1v0.6h-1v0.8v5.6H9h3.4v-5.6V9.4H11.5z
		 M10.5,8v0.8v0.3v1.1v0.1h-3v-0.1V9.2V8.8V8V7.7h3V8z"/>
	<path class="st0" d="M17.6,9.4h-3.8v6.5H18c-0.2-0.2-0.3-0.6-0.4-1.1V9.4z"/>
	<path class="st0" d="M0.4,9.4v5.3c0,0.5-0.1,0.9-0.4,1.1h4.2V9.4H0.4z"/>
</g>
</svg>
