<?xml version="1.0" encoding="utf-8"?>
<!-- Generator: Adobe Illustrator 25.2.1, SVG Export Plug-In . SVG Version: 6.00 Build 0)  -->
<svg version="1.1" id="Layer_1" xmlns="http://www.w3.org/2000/svg" xmlns:xlink="http://www.w3.org/1999/xlink" x="0px" y="0px"
	 viewBox="0 0 16.4 18" style="enable-background:new 0 0 16.4 18;" xml:space="preserve">
<style type="text/css">
	.st0{fill:#FFFFFF;}
</style>
<g>
	<path class="st0" d="M0.3,2c0-0.2,0.1-0.4,0.2-0.6s0.4-0.2,0.6-0.2h3.9l0.3-0.7c0.1-0.1,0.2-0.3,0.3-0.3C5.9,0,6,0,6.2,0h4
		c0.2,0,0.3,0,0.5,0.1c0.1,0.1,0.2,0.2,0.3,0.3l0.3,0.7h3.9c0.2,0,0.4,0.1,0.6,0.2C16,1.5,16.1,1.7,16.1,2v1c0,0.1,0,0.2-0.1,0.3
		c-0.1,0.1-0.2,0.1-0.3,0.1H0.7c-0.1,0-0.2,0-0.3-0.1C0.4,3.2,0.3,3.1,0.3,3V2z M14.2,16.4c0,0.4-0.2,0.8-0.5,1.1
		C13.4,17.8,13,18,12.5,18H3.9c-0.4,0-0.8-0.2-1.2-0.5c-0.3-0.3-0.5-0.7-0.5-1.1L1.5,5c0-0.1,0-0.2,0.1-0.3c0.1-0.1,0.2-0.1,0.3-0.1
		h12.6c0.1,0,0.2,0,0.3,0.1c0.1,0.1,0.1,0.2,0.1,0.3L14.2,16.4z"/>
</g>
</svg>
