<?xml version="1.0" encoding="utf-8"?>
<!-- Generator: Adobe Illustrator 25.2.1, SVG Export Plug-In . SVG Version: 6.00 Build 0)  -->
<svg version="1.1" id="Layer_1" xmlns="http://www.w3.org/2000/svg" xmlns:xlink="http://www.w3.org/1999/xlink" x="0px" y="0px"
	 viewBox="0 0 681.1 222.6" style="enable-background:new 0 0 681.1 222.6;" xml:space="preserve">
<style type="text/css">
	.st0{fill:#FFFFFF;}
</style>
<g>
	<path class="st0" d="M269.8,157.3l2.4,8.3h-41.4l2.4-8.3l-23.4-149L206.2,0h49.4l-2.4,8l3.8,71.9l-0.7,20.6L268.4,8l-2.1-8h40
		l-2.4,8l8.3,72.1l1.2,20.3L320,8l-2.1-8h44.9l-3.5,8.3l-22.2,149l2.4,8.3h-45.2l2.4-8.3L281.7,79L269.8,157.3z"/>
	<path class="st0" d="M462.1,17.5l4.3,3.3l-0.7,5.4v27l0.7,4.7l-40.7,9.9l0.5-5.2v-18l-5.4-5.4h-7.3l-5.4,5.4v76.2l5.4,5.4h7.3
		l5.4-5.4v-18l-0.7-4.7l40.7-9.9l-0.5,4.7v46.4l0.7,5.4l-4.3,3.5L448.4,162l-2.6,3.5h-57.2L386,162l-13.7-13.7l-4.5-3.5l0.7-5.4
		v-113l-0.7-5.4l4.5-3.5L386,3.5l2.6-3.5h57.2l2.4,3.5L462.1,17.5z"/>
	<path class="st0" d="M569.2,17.5l4.3,3.3l-0.7,5.4v27l0.7,4.7l-40.7,9.9l0.5-5.2v-18l-5.4-5.4h-7.3l-5.4,5.4v76.2l5.4,5.4h7.3
		l5.4-5.4v-18l-0.7-4.7l40.7-9.9l-0.5,4.7v46.4l0.7,5.4l-4.3,3.5L555.5,162l-2.6,3.5h-57.2l-2.6-3.5l-13.7-13.7l-4.5-3.5l0.7-5.4
		v-113l-0.7-5.4l4.5-3.5l13.7-13.7l2.6-3.5h57.2l2.4,3.5L569.2,17.5z"/>
	<path class="st0" d="M676.6,17.5l4.3,3.3l-0.7,5.4v16.1l0.7,4.7L641.1,57l0.5-5.2v-7.1l-5.4-5.4h-8.5l-5.4,5.4v76.2l5.4,5.4h8.5
		l5.4-5.4v-18.2h-4.5l-4.7,1.7V67.2h48.7l-0.9,5v67.2l0.7,5.4l-4.3,3.5L662.9,162l-2.6,3.5h-57.5l-2.6-3.5l-13.7-13.7l-4.5-3.5
		l0.7-5.4v-113l-0.7-5.4l4.5-3.5l13.7-13.7l2.6-3.5h57.5l2.4,3.5L676.6,17.5z"/>
</g>
<g>
	<path class="st0" d="M1,188.9h4.2l2.3,18.8l2.2-18.8h3.6l2.2,19.5l2.3-19.5h4.2L18,222.1h-4l-2.4-17.8l-2.2,17.8H5.2L1,188.9z"/>
	<path class="st0" d="M48.2,213.6c0,4-0.1,4.8-1,6.2c-1.1,1.7-3.2,2.7-5.5,2.7s-4.4-1-5.5-2.7c-0.9-1.4-1-2.3-1-6.2v-16.3
		c0-3.9,0.1-4.8,1-6.2c1.1-1.6,3.2-2.7,5.5-2.7s4.4,1,5.5,2.7c0.9,1.4,1,2.3,1,6.2V213.6z M43.6,195.5c0-1.9-0.5-2.7-1.9-2.7
		c-1.3,0-1.9,0.8-1.9,2.7v20.1c0,1.9,0.5,2.7,1.9,2.7c1.3,0,1.9-0.8,1.9-2.7V195.5z"/>
	<path class="st0" d="M61.1,188.9h4.2l2.3,18.8l2.2-18.8h3.6l2.2,19.5l2.3-19.5h4.2l-4.2,33.1h-4l-2.4-17.8l-2.2,17.8h-4.1
		L61.1,188.9z"/>
	<path class="st0" d="M126.8,210.3c0,1.8,0.1,2.6,0.1,3.5c0,5.9-2.2,8.8-6.7,8.8c-4.3,0-6.5-2.7-6.5-7.9v-18.2
		c0-5.3,2.2-7.9,6.5-7.9c4.5,0,6.7,2.9,6.7,8.6c0,0.8,0,1.3-0.1,2.6h-4.6c0.1-1,0.1-1.5,0.1-2.3c0-3.7-0.4-4.7-2.1-4.7
		c-1.5,0-1.9,0.7-1.9,3.6v18.2c0,2.9,0.4,3.6,1.9,3.6c1.6,0,2.1-1,2.1-4.5c0-1,0-1.9-0.1-3.4H126.8z"/>
	<path class="st0" d="M140.6,188.9h4.6v28.8h6.6v4.3h-11.2V188.9z"/>
	<path class="st0" d="M169.1,222.1h-4.5l4.5-33.1h6l4.3,33.1h-4.5l-0.8-7.5h-4.2L169.1,222.1z M171.9,195l-1.6,15.3h3.2L171.9,195z"
		/>
	<path class="st0" d="M196.7,212.3v1.4c0,3.4,0.6,4.5,2.4,4.5c1.4,0,2.1-1.1,2.1-3.3c0-2.2-0.5-3.5-2.8-6.5l-2.3-3.4
		c-2.8-4.3-3.8-6.6-3.8-9.5c0-4.4,2.6-7.2,6.8-7.2c3.1,0,5.4,1.8,6.1,4.8c0.2,1.2,0.2,1.4,0.2,4.1l-4.5,0.4c0-1.7,0-2.3-0.1-3
		c-0.1-1.3-0.9-2.1-1.9-2.1c-1.2,0-1.9,1.1-1.9,3.1c0,2,0.2,2.5,3.3,7.1l2.3,3.4c2.1,3.1,3.3,6.5,3.3,9.3c0,4.4-2.4,6.9-6.8,6.9
		c-2.5,0-4.2-0.8-5.5-2.5c-1.1-1.5-1.4-2.9-1.4-5.8c0-0.7,0-1,0-1.8L196.7,212.3z"/>
	<path class="st0" d="M223.4,212.3v1.4c0,3.4,0.6,4.5,2.4,4.5c1.4,0,2.1-1.1,2.1-3.3c0-2.2-0.5-3.5-2.8-6.5l-2.3-3.4
		c-2.8-4.3-3.8-6.6-3.8-9.5c0-4.4,2.6-7.2,6.8-7.2c3.1,0,5.4,1.8,6.1,4.8c0.2,1.2,0.2,1.4,0.2,4.1l-4.5,0.4c0-1.7,0-2.3-0.1-3
		c-0.1-1.3-0.9-2.1-1.9-2.1c-1.2,0-1.9,1.1-1.9,3.1c0,2,0.2,2.5,3.3,7.1l2.3,3.4c2.1,3.1,3.3,6.5,3.3,9.3c0,4.4-2.4,6.9-6.8,6.9
		c-2.5,0-4.2-0.8-5.5-2.5c-1.1-1.5-1.4-2.9-1.4-5.8c0-0.7,0-1,0-1.8L223.4,212.3z"/>
	<path class="st0" d="M250.1,222.1h-4.6v-33.1h4.6V222.1z"/>
	<path class="st0" d="M277.1,210.3c0,1.8,0.1,2.6,0.1,3.5c0,5.9-2.2,8.8-6.7,8.8c-4.3,0-6.5-2.7-6.5-7.9v-18.2
		c0-5.3,2.2-7.9,6.5-7.9c4.5,0,6.7,2.9,6.7,8.6c0,0.8,0,1.3-0.1,2.6h-4.6c0.1-1,0.1-1.5,0.1-2.3c0-3.7-0.4-4.7-2.1-4.7
		c-1.5,0-1.9,0.7-1.9,3.6v18.2c0,2.9,0.4,3.6,1.9,3.6c1.6,0,2.1-1,2.1-4.5c0-1,0-1.9-0.1-3.4H277.1z"/>
	<path class="st0" d="M322.4,210.3c0,1.8,0.1,2.6,0.1,3.5c0,5.9-2.2,8.8-6.7,8.8c-4.3,0-6.5-2.7-6.5-7.9v-18.2
		c0-5.3,2.2-7.9,6.5-7.9c4.5,0,6.7,2.9,6.7,8.6c0,0.8,0,1.3-0.1,2.6h-4.6c0.1-1,0.1-1.5,0.1-2.3c0-3.7-0.4-4.7-2.1-4.7
		c-1.5,0-1.9,0.7-1.9,3.6v18.2c0,2.9,0.4,3.6,1.9,3.6c1.6,0,2.1-1,2.1-4.5c0-1,0-1.9-0.1-3.4H322.4z"/>
	<path class="st0" d="M340.8,206.9v15.2h-4.6v-33.1h4.6v13.6h3.8v-13.6h4.6v33.1h-4.6v-15.2H340.8z"/>
	<path class="st0" d="M367.1,222.1h-4.5l4.5-33.1h6l4.3,33.1H373l-0.8-7.5h-4.2L367.1,222.1z M370,195l-1.6,15.3h3.2L370,195z"/>
	<path class="st0" d="M395.3,188.9c3.7,0,5.4,0.6,6.8,2.3c1.2,1.5,1.7,3.8,1.7,6.9c0,4.1-0.4,5.6-2.3,8l3.2,15.8h-5l-2.7-14.3
		c-0.8,0.1-0.9,0.1-1.6,0.2v14.1h-4.6v-33.1H395.3z M396,203.3c1.5,0,2.3-0.3,2.8-1.2c0.3-0.6,0.4-1.4,0.4-4.5
		c0-3.6-0.6-4.4-3.2-4.4h-0.6v10.1H396z"/>
	<path class="st0" d="M422.2,222.1h-4.5l4.5-33.1h6l4.3,33.1H428l-0.8-7.5H423L422.2,222.1z M425.1,195l-1.6,15.3h3.2L425.1,195z"/>
	<path class="st0" d="M458.7,210.3c0,1.8,0.1,2.6,0.1,3.5c0,5.9-2.2,8.8-6.7,8.8c-4.3,0-6.5-2.7-6.5-7.9v-18.2
		c0-5.3,2.2-7.9,6.5-7.9c4.5,0,6.7,2.9,6.7,8.6c0,0.8,0,1.3-0.1,2.6h-4.6c0.1-1,0.1-1.5,0.1-2.3c0-3.7-0.4-4.7-2.1-4.7
		c-1.5,0-1.9,0.7-1.9,3.6v18.2c0,2.9,0.4,3.6,1.9,3.6c1.6,0,2.1-1,2.1-4.5c0-1,0-1.9-0.1-3.4H458.7z"/>
	<path class="st0" d="M475.8,193.3h-4.3v-4.3H485v4.3h-4.5v28.8h-4.6V193.3z"/>
	<path class="st0" d="M509.1,188.9v4.3h-6.6v9.3h4.6v4.3h-4.6v10.9h7v4.3h-11.6v-33.1H509.1z"/>
	<path class="st0" d="M527,188.9c3.7,0,5.4,0.6,6.8,2.3c1.2,1.5,1.7,3.8,1.7,6.9c0,4.1-0.4,5.6-2.3,8l3.2,15.8h-5l-2.7-14.3
		c-0.8,0.1-0.9,0.1-1.6,0.2v14.1h-4.6v-33.1H527z M527.7,203.3c1.5,0,2.3-0.3,2.8-1.2c0.3-0.6,0.4-1.4,0.4-4.5
		c0-3.6-0.6-4.4-3.2-4.4h-0.6v10.1H527.7z"/>
	<path class="st0" d="M581.3,222.1h-2.5l-0.7-2.3c-1.3,1.9-2.7,2.8-4.3,2.8c-1.9,0-3.8-1.1-4.7-2.9c-0.7-1.4-0.9-2.7-0.9-5.7v-17.5
		c0-5.3,2.2-7.9,6.6-7.9c4.4,0,6.7,2.9,6.7,8.6c0,0.7,0,1.3-0.1,2.6h-4.6c0.1-1.1,0.1-1.5,0.1-2.3c0-3.7-0.4-4.7-2.1-4.7
		c-1.5,0-1.9,0.7-1.9,3.6v17.5c0,2.4,0,2.8,0.3,3.3c0.3,0.7,0.9,1,1.6,1c0.7,0,1.4-0.4,1.7-1.2c0.2-0.5,0.3-1,0.3-3.2v-4.8h-2v-3.9
		h6.7V222.1z"/>
	<path class="st0" d="M599.8,215.6c0,1.9,0.6,2.7,1.9,2.7c1.4,0,1.9-0.8,1.9-2.7v-26.6h4.6v24.7c0,3.9-0.1,4.8-1,6.2
		c-1.1,1.6-3.2,2.7-5.5,2.7c-2.3,0-4.4-1-5.5-2.7c-0.9-1.4-1-2.3-1-6.2v-24.7h4.6V215.6z"/>
	<path class="st0" d="M626.8,222.1h-4.6v-33.1h4.6V222.1z"/>
	<path class="st0" d="M645.6,188.9c3.2,0,4.7,0.4,6.1,1.8c1.4,1.3,2.1,3.3,2.1,5.8v17.8c0,2.5-0.7,4.5-2.1,5.8
		c-1.4,1.4-2.9,1.8-6.1,1.8h-4.9v-33.1H645.6z M645.9,217.8c2.5,0,3.3-0.7,3.3-3.3v-17.8c0-2.5-0.8-3.3-3.3-3.3h-0.6v24.5H645.9z"/>
	<path class="st0" d="M678.9,188.9v4.3h-6.6v9.3h4.6v4.3h-4.6v10.9h7v4.3h-11.6v-33.1H678.9z"/>
</g>
<g>
	<rect x="166.5" y="85.7" class="st0" width="25.2" height="66.8"/>
	<path class="st0" d="M166.5,30.1V82v0.6h25.2C191.6,32.9,182.6,31.9,166.5,30.1z"/>
	<path class="st0" d="M29.1,86.2h13.6v66.2h110.1V85.7h-29.9v-3h29.9V82V28.9c-20.2-1.4-43.6-1.9-55-1.9c-11.4,0-34.9,0.4-55.1,1.9
		v53.2H29.1v-52c-16,1.8-25,2.7-25.2,52.5h25.2v3H3.9v66.8h25.2V86.2z M75.9,65.7h43.8v37H75.9V65.7z M42.7,82.7h30v3h-30V82.7z"/>
	<path class="st0" d="M191.8,155.5H3.8c-0.3,4.3-1.4,7.8-3.8,10.1l97.8,0l97.8,0C193.3,163.3,192.1,159.8,191.8,155.5z"/>
	<rect x="81.9" y="71.7" class="st0" width="31.7" height="24.9"/>
	<rect x="152.8" y="82.1" class="st0" width="13.6" height="4.1"/>
</g>
</svg>
